<?xml version="1.0" standalone="no"?>
<!DOCTYPE svg PUBLIC "-//W3C//DTD SVG 20010904//EN"
 "http://www.w3.org/TR/2001/REC-SVG-20010904/DTD/svg10.dtd">
<svg version="1.0" xmlns="http://www.w3.org/2000/svg"
 width="1200.000000pt" height="1200.000000pt" viewBox="0 0 1200.000000 1200.000000"
 preserveAspectRatio="xMidYMid meet">
<metadata>
Created by potrace 1.14, written by Peter Selinger 2001-2017
</metadata>
<g transform="translate(0.000000,1200.000000) scale(0.100000,-0.100000)"
fill="#000000" stroke="none">
<path d="M5665 11439 c-1188 -74 -2310 -530 -3220 -1310 -152 -130 -440 -418
-574 -574 -1252 -1457 -1646 -3455 -1041 -5275 298 -896 827 -1703 1526 -2330
893 -801 1977 -1271 3189 -1382 182 -16 728 -16 910 0 1654 152 3091 987 4037
2347 677 973 1022 2214 948 3405 -76 1208 -525 2317 -1311 3235 -131 154 -419
442 -574 574 -1083 929 -2475 1398 -3890 1310z m830 -418 c174 -20 375 -51
524 -81 830 -169 1617 -556 2271 -1116 147 -126 408 -387 534 -534 625 -730
1029 -1617 1165 -2555 41 -280 46 -364 46 -735 0 -371 -5 -455 -46 -735 -136
-938 -540 -1825 -1165 -2555 -126 -147 -387 -408 -534 -534 -730 -625 -1617
-1029 -2555 -1165 -280 -41 -364 -46 -735 -46 -371 0 -455 5 -735 46 -938 136
-1825 540 -2555 1165 -147 126 -408 387 -534 534 -625 730 -1029 1617 -1165
2555 -41 280 -46 364 -46 735 0 371 5 455 46 735 136 938 540 1825 1165 2555
126 147 387 408 534 534 796 681 1790 1104 2810 1196 63 5 133 12 155 14 82 8
724 -3 820 -13z"/>
<path d="M5565 10975 c-1185 -109 -2258 -610 -3094 -1446 -709 -709 -1187
-1608 -1375 -2584 -99 -519 -114 -1116 -41 -1645 76 -546 264 -1129 518 -1610
717 -1357 1995 -2308 3482 -2594 606 -116 1284 -116 1890 0 1487 286 2765
1237 3482 2594 254 481 442 1064 518 1610 73 529 58 1126 -41 1645 -250 1302
-1021 2462 -2129 3205 -709 475 -1491 749 -2355 825 -201 18 -658 18 -855 0z
m399 -436 c10 -50 7 -89 -6 -89 -58 0 -408 -33 -425 -40 -20 -8 -23 -17 -23
-63 0 -91 0 -91 188 -77 89 7 165 10 168 7 4 -3 9 -26 11 -51 l5 -44 -43 -6
c-24 -3 -97 -10 -163 -16 -65 -5 -125 -15 -132 -21 -18 -15 -18 -109 -1 -134
13 -17 21 -17 241 0 124 10 229 15 232 12 3 -2 8 -29 11 -59 l5 -55 -58 -6
c-151 -15 -615 -50 -618 -46 -7 7 -58 660 -53 665 6 6 524 51 603 53 50 1 52
0 58 -30z m674 -21 l373 -53 -7 -65 c-3 -36 -9 -68 -13 -72 -4 -4 -62 0 -129
9 -107 14 -125 14 -137 2 -10 -9 -27 -100 -50 -258 -19 -135 -36 -245 -38
-246 -1 0 -44 5 -94 13 -74 11 -93 18 -93 31 0 9 15 117 33 241 18 124 31 233
29 242 -4 21 -43 32 -167 48 -49 6 -95 13 -101 15 -11 3 3 145 15 145 3 0 174
-23 379 -52z m986 -258 c187 -72 343 -133 347 -136 9 -5 -41 -134 -52 -134 -5
0 -55 18 -111 40 -115 45 -143 48 -157 22 -8 -15 -148 -373 -174 -443 -5 -15
-16 -13 -94 18 -48 19 -89 36 -91 38 -1 1 38 107 87 235 68 176 88 237 81 250
-6 11 -62 38 -131 65 -98 39 -119 50 -114 64 4 9 16 40 27 69 11 31 25 51 31
49 7 -3 165 -64 351 -137z m-3074 4 c17 -36 30 -67 30 -69 0 -1 -48 -24 -107
-51 -124 -55 -133 -61 -133 -83 0 -9 45 -116 101 -239 55 -123 99 -225 97
-227 -14 -14 -172 -75 -177 -68 -4 4 -50 103 -101 218 -52 116 -98 216 -103
223 -16 20 -43 14 -159 -38 -61 -27 -113 -50 -114 -50 -4 0 -65 133 -62 135 3
2 692 313 696 314 2 1 16 -29 32 -65z m329 -358 c60 -31 88 -123 70 -223 -13
-70 -43 -124 -100 -180 -44 -44 -79 -61 -41 -20 29 30 42 70 42 124 0 55 -21
83 -61 83 -18 0 -42 12 -61 29 -29 26 -33 36 -33 79 0 40 5 56 25 77 43 46
105 58 159 31z m3722 -157 c60 -50 109 -93 109 -97 0 -3 -14 -84 -31 -179 -25
-138 -28 -177 -19 -188 7 -8 18 -15 25 -15 7 0 84 27 171 60 88 33 163 60 167
60 4 0 57 -41 117 -92 l110 -91 -43 -51 c-24 -28 -121 -144 -216 -259 -106
-127 -177 -204 -184 -200 -7 3 -39 29 -72 57 -33 27 -62 51 -63 52 -2 1 57 76
132 165 75 90 136 171 136 181 0 43 -30 38 -255 -47 -121 -46 -227 -86 -236
-89 -12 -6 -8 33 27 226 24 128 43 243 44 255 0 23 -26 43 -47 36 -6 -2 -71
-76 -143 -164 -73 -87 -135 -159 -137 -159 -3 0 -35 26 -73 57 l-69 57 42 50
c24 28 121 144 216 259 95 114 175 207 178 207 3 0 54 -41 114 -91z m-4982 12
c6 -30 10 -55 9 -56 -2 -1 -25 -10 -53 -19 -93 -34 -226 -110 -281 -161 -64
-59 -76 -93 -44 -125 31 -31 75 -22 169 35 226 136 339 170 418 126 91 -52
113 -153 58 -266 -65 -134 -280 -296 -469 -354 -99 -31 -101 -30 -115 35 -7
31 -9 59 -4 63 4 4 37 15 73 25 140 37 352 166 374 227 13 37 1 74 -28 87 -34
15 -77 0 -211 -78 -182 -105 -283 -131 -362 -93 -45 21 -84 81 -91 138 -11
101 99 241 285 362 88 57 243 127 254 115 4 -4 12 -31 18 -61z m1597 -425
c-75 -74 -74 -109 6 -203 29 -34 87 -101 129 -150 42 -48 106 -131 144 -183
37 -52 73 -102 79 -110 10 -13 9 -13 -9 0 -86 65 -112 93 -213 220 -45 58
-108 133 -140 168 l-57 63 -115 -39 c-497 -169 -918 -430 -1277 -793 -269
-272 -449 -524 -612 -854 -339 -686 -422 -1472 -235 -2220 33 -129 103 -345
112 -345 16 0 43 61 89 201 44 131 48 148 36 175 -17 41 -16 64 7 108 l19 38
-24 32 c-36 47 -83 153 -96 215 -31 151 11 345 112 508 94 152 311 359 522
498 l57 38 -7 91 c-5 50 -8 208 -7 351 0 243 2 268 28 390 80 381 220 641 490
910 117 117 224 194 363 264 113 56 119 51 8 -7 -125 -65 -211 -129 -319 -236
-206 -205 -340 -414 -426 -662 -89 -258 -120 -513 -101 -832 7 -108 14 -210
17 -227 5 -27 1 -33 -34 -52 -74 -42 -245 -175 -334 -261 -160 -154 -273 -331
-314 -492 -39 -151 -10 -333 73 -457 l39 -59 -18 -30 c-20 -33 -23 -77 -8
-121 9 -25 3 -51 -41 -182 -56 -164 -86 -214 -173 -281 -24 -19 -54 -52 -66
-73 -19 -34 -20 -42 -9 -69 8 -20 27 -37 53 -50 l41 -19 -48 4 c-79 8 -116 60
-86 120 6 12 32 41 57 63 l47 42 -42 123 c-178 522 -225 1052 -142 1584 190
1206 1024 2197 2191 2600 l136 47 -5 32 c-6 41 27 91 91 134 26 17 50 32 53
32 3 0 -16 -20 -41 -44z m178 -90 c69 -98 129 -209 216 -401 95 -209 312 -727
306 -732 -2 -2 -12 18 -24 44 -253 590 -311 687 -581 975 -50 54 -91 104 -91
112 0 27 90 79 118 68 7 -2 32 -32 56 -66z m1121 36 c136 -22 292 -53 385 -79
469 -127 910 -357 1265 -658 52 -44 69 -54 76 -44 5 8 9 21 9 30 0 43 35 126
65 156 35 35 72 48 42 15 -44 -49 -73 -176 -83 -371 -7 -129 -7 -131 -31 -131
l-23 0 6 108 7 108 -59 53 c-183 164 -444 336 -699 461 -326 160 -623 252
-990 307 -172 26 -688 26 -859 0 -114 -17 -119 -17 -132 0 -24 32 -38 29 211
59 169 20 642 12 810 -14z m-3597 -218 c86 -69 172 -144 190 -166 95 -120 74
-287 -59 -454 -128 -162 -291 -213 -432 -137 -48 26 -347 259 -347 270 0 3 26
38 59 79 l59 74 153 -123 c85 -67 167 -128 182 -134 15 -7 49 -13 74 -13 117
0 221 133 192 243 -14 52 -60 100 -216 224 -73 59 -132 110 -131 115 4 9 111
148 116 148 1 0 73 -57 160 -126z m7085 -292 c75 -75 4 -207 -100 -187 -99 18
-126 147 -43 203 47 32 101 25 143 -16z m-4751 17 c183 -38 326 -176 476 -459
74 -139 169 -358 214 -495 22 -66 46 -127 54 -135 24 -25 48 0 57 61 47 334
141 615 242 727 39 43 45 46 88 44 48 -2 157 -41 195 -70 21 -16 19 -17 -63
-14 -56 2 -103 -2 -138 -12 -61 -18 -137 -69 -137 -91 0 -27 28 -28 62 -2 49
37 120 57 202 57 108 0 166 -21 217 -78 121 -136 313 -476 393 -693 48 -131
101 -337 128 -498 14 -81 28 -136 36 -139 17 -5 16 68 -3 213 -57 432 -276
903 -554 1188 -80 83 -141 129 -206 157 l-50 21 52 -5 c139 -13 308 -166 500
-454 205 -308 345 -664 400 -1012 24 -159 24 -494 -1 -635 -62 -347 -162 -609
-327 -856 -148 -221 -251 -299 -394 -299 -138 1 -232 39 -338 139 -62 58 -119
135 -224 306 -23 38 -50 44 -62 13 -6 -13 -30 -95 -54 -183 -75 -269 -131
-375 -232 -443 -66 -45 -105 -41 -252 25 -322 144 -577 410 -833 868 -139 247
-203 424 -265 729 -58 288 -69 393 -69 671 -1 202 3 267 17 340 55 275 113
438 215 606 92 151 231 308 333 376 60 39 212 55 321 32z m2254 -143 c37 -185
101 -246 292 -280 46 -7 85 -16 88 -19 3 -2 -23 -7 -57 -11 -213 -24 -290 -97
-328 -314 l-16 -93 -13 82 c-35 221 -116 300 -331 325 -34 4 -60 9 -57 11 3 3
42 11 88 19 107 18 197 62 231 111 33 50 56 119 70 218 7 44 13 69 15 55 2
-14 10 -60 18 -104z m981 14 c20 -40 15 -133 -14 -269 -15 -69 -27 -146 -28
-171 0 -43 1 -45 30 -45 27 0 37 10 101 110 105 161 155 227 193 252 39 27 60
29 86 9 66 -48 -49 -262 -206 -383 -32 -25 -59 -50 -59 -55 0 -24 34 -18 71
12 36 28 46 32 82 27 93 -13 116 -109 42 -174 -45 -39 -120 -65 -172 -61 -33
3 -38 7 -41 29 -2 19 6 36 28 58 19 18 30 38 26 46 -6 17 -22 20 -31 5 -4 -6
-18 -1 -36 14 -16 13 -54 30 -85 37 -31 7 -71 23 -88 36 -17 12 -41 28 -53 34
-27 14 -27 15 -13 198 12 158 34 260 62 296 28 35 86 32 105 -5z m1241 -91
c40 -61 72 -117 70 -124 -4 -20 -362 -644 -369 -645 -3 0 -31 38 -63 85 l-56
85 31 54 c26 48 29 58 18 78 -22 42 -212 323 -223 330 -6 4 -38 5 -71 2 l-60
-5 -52 80 -52 80 52 6 c29 4 187 24 352 45 165 20 311 38 325 39 21 0 36 -17
98 -110z m-995 -4 c-32 -22 -99 -113 -178 -238 -37 -59 -69 -107 -71 -105 -11
12 21 88 68 160 65 99 112 155 153 180 36 22 58 24 28 3z m-4175 -18 c30 -36
24 -63 -37 -178 -112 -212 -174 -413 -207 -671 -44 -346 21 -902 152 -1293 59
-177 167 -388 311 -610 113 -173 182 -256 339 -412 128 -126 154 -156 154
-180 0 -65 -36 -68 -156 -12 -364 168 -693 450 -915 784 -115 173 -245 467
-298 675 -39 153 -46 229 -46 495 1 246 2 267 28 390 74 348 212 623 422 844
148 155 223 205 253 168z m1601 -11 c28 -34 23 -79 -22 -191 -24 -60 -52 -134
-62 -163 -15 -40 -25 -54 -44 -59 -31 -8 -39 3 -97 140 -40 96 -45 116 -40
156 9 68 36 88 142 111 110 23 109 23 123 6z m-3824 -391 c209 -81 383 -149
386 -151 5 -3 -55 -176 -66 -192 -1 -1 -125 45 -276 104 -391 151 -393 147
-90 -206 120 -140 216 -256 212 -257 -3 -1 -150 -21 -326 -43 -176 -22 -327
-43 -337 -46 -19 -6 -30 -28 -22 -48 3 -8 49 -31 102 -52 350 -135 443 -172
448 -177 5 -4 -47 -154 -62 -178 -5 -8 -787 296 -791 308 -2 4 23 76 55 158
l58 149 222 27 c262 32 269 33 277 59 7 21 -23 59 -248 320 l-64 75 51 135
c29 74 55 143 59 154 4 10 13 16 20 13 6 -3 183 -71 392 -152z m5820 -4 c-30
-44 -55 -128 -55 -184 0 -53 24 -105 72 -154 38 -39 42 -47 39 -87 -1 -27 4
-59 15 -81 15 -33 75 -83 117 -98 15 -6 17 -14 11 -59 -26 -215 -74 -316 -176
-369 -48 -25 -62 -25 -22 0 82 50 132 167 149 346 l7 70 -35 13 c-71 26 -130
121 -114 184 5 16 -6 34 -42 74 -76 83 -86 156 -39 281 17 47 66 103 89 103 5
0 -2 -18 -16 -39z m182 -22 c34 -22 87 -47 120 -56 32 -8 64 -19 71 -25 36
-30 -14 -101 -82 -113 -37 -7 -102 7 -131 29 -28 21 -57 20 -53 -1 2 -10 27
-30 57 -45 63 -32 126 -36 173 -12 28 15 31 14 53 -6 21 -19 32 -22 87 -18 37
2 81 12 106 25 38 19 42 19 42 3 0 -9 -14 -45 -31 -79 -40 -79 -87 -113 -162
-116 -44 -1 -52 -5 -52 -21 0 -16 8 -20 48 -22 47 -3 49 -4 42 -30 -3 -15 -17
-38 -31 -52 -22 -23 -32 -25 -107 -25 -140 1 -237 63 -237 152 l0 32 53 -24
c67 -31 100 -35 105 -13 2 11 -8 20 -35 28 -151 49 -244 153 -229 254 17 110
59 176 111 176 12 0 49 -18 82 -41z m1718 -288 c120 -54 236 -310 252 -553 l6
-98 -29 0 c-53 0 -105 13 -101 24 8 20 -12 210 -28 271 -34 131 -81 193 -132
174 -50 -18 -53 -75 -13 -241 27 -112 35 -232 20 -287 -24 -91 -118 -145 -208
-120 -55 15 -141 92 -181 162 -35 61 -74 175 -97 279 -15 69 -23 273 -11 284
3 4 33 3 65 -1 l60 -7 5 -151 c5 -156 19 -229 59 -314 36 -77 107 -93 133 -30
14 36 13 51 -21 230 -46 244 -23 341 92 382 52 19 81 18 129 -4z m-1069 -324
c177 -349 287 -726 335 -1147 18 -155 15 -536 -5 -705 -77 -641 -332 -1238
-736 -1725 -136 -163 -441 -457 -461 -444 -25 15 -6 53 49 101 96 84 273 265
342 349 35 43 86 106 113 139 26 33 78 107 115 165 37 58 82 125 100 149 17
24 32 50 32 56 0 14 90 187 101 195 9 6 41 80 43 100 2 23 58 163 72 180 13
17 36 84 40 115 3 34 37 150 45 155 11 7 41 129 34 140 -6 9 11 103 25 135 19
45 22 64 26 164 2 58 9 110 15 118 9 10 10 49 5 138 -4 87 -3 126 5 131 22 13
-10 403 -51 619 -71 370 -205 722 -402 1053 -47 78 -49 85 -37 113 l12 30 64
-108 c36 -59 89 -157 119 -216z m-1336 -578 c36 -6 121 -15 190 -19 l125 -8
-135 3 c-148 4 -300 23 -300 37 0 5 12 7 28 4 15 -3 56 -11 92 -17z m2770 -41
c0 -13 16 -183 35 -378 27 -275 32 -356 22 -362 -6 -4 -30 -8 -52 -8 -22 0
-49 -3 -61 -6 -20 -5 -22 0 -33 116 -14 136 -16 146 -37 154 -12 5 -308 -20
-461 -38 l-41 -5 -6 49 c-3 28 -9 72 -12 98 l-5 48 243 23 c134 13 252 28 262
33 17 9 18 18 12 97 -3 47 -9 109 -13 138 l-6 52 49 4 c108 8 104 9 104 -15z
m-8582 -260 c164 -119 210 -148 236 -148 18 0 60 -3 93 -6 l59 -6 -3 -57 c-2
-31 -6 -74 -9 -96 l-5 -41 -92 8 -92 7 -248 -130 c-137 -72 -251 -128 -254
-125 -3 3 -2 51 2 106 l7 102 147 71 c190 93 190 92 31 200 -63 43 -123 83
-133 90 -16 11 -17 23 -11 114 l7 102 31 -22 c17 -12 123 -88 234 -169z m2048
-198 c53 -139 173 -376 246 -487 213 -323 497 -580 840 -757 215 -112 358
-161 511 -175 82 -8 82 -8 21 -10 -194 -4 -507 112 -778 290 -313 204 -584
504 -749 827 -64 124 -136 284 -162 359 -19 52 -19 53 1 67 17 13 20 13 26 -2
4 -9 23 -60 44 -112z m4699 -125 c35 -175 92 -231 277 -269 42 -9 87 -16 100
-17 13 -1 -12 -7 -54 -14 -231 -39 -293 -98 -331 -315 -10 -59 -16 -77 -20
-60 -3 14 -12 61 -21 104 -36 183 -99 235 -325 270 l-75 12 79 12 c118 18 182
42 230 84 52 46 78 105 102 229 11 60 19 83 21 64 1 -16 9 -61 17 -100z m1593
-425 c162 -21 295 -40 297 -42 3 -2 -15 -150 -38 -328 l-43 -325 -55 3 c-30 2
-57 7 -61 10 -3 4 6 103 22 221 16 117 26 219 23 227 -6 16 -19 21 -74 29 -70
10 -74 2 -99 -180 -12 -88 -23 -161 -24 -163 -2 -2 -26 0 -54 4 -48 6 -51 8
-47 33 13 72 35 256 35 287 0 28 -5 36 -26 44 -36 14 -110 12 -122 -2 -6 -7
-23 -112 -39 -233 l-29 -220 -60 3 c-32 2 -60 5 -61 6 -2 2 70 562 83 638 6
37 7 38 42 32 21 -3 169 -22 330 -44z m-7924 -47 c39 -195 126 -757 118 -762
-15 -9 -822 -144 -828 -138 -6 6 -135 759 -131 764 6 5 147 30 147 26 0 -24
83 -504 90 -521 14 -32 30 -35 110 -22 47 8 73 17 79 29 6 11 -2 83 -24 211
-18 107 -31 197 -28 200 2 3 33 10 68 16 l63 10 10 -55 c6 -31 20 -118 32
-194 13 -75 29 -145 35 -154 12 -15 21 -16 90 -6 121 17 117 0 67 301 -24 141
-46 266 -49 278 -4 19 2 22 59 31 35 6 68 11 75 12 6 0 14 -11 17 -26z m5460
-77 l40 -31 175 0 c207 -2 279 -17 431 -91 75 -37 111 -63 168 -119 101 -102
127 -159 127 -285 0 -85 -3 -102 -29 -155 -47 -95 -150 -192 -266 -248 -506
-246 -1186 16 -1145 439 16 164 149 311 358 396 42 18 77 37 77 44 0 7 -15 42
-34 78 l-34 66 46 -32 c26 -17 65 -45 86 -62z m-1466 -325 c56 -60 102 -118
102 -128 0 -11 -6 -28 -14 -38 -11 -16 -31 -19 -129 -23 -150 -6 -164 -2 -173
46 -9 47 7 145 34 205 18 40 25 47 49 47 24 0 47 -20 131 -109z m-2765 -6 c12
-14 34 -38 50 -54 l27 -29 -55 -12 c-58 -12 -74 -25 -56 -43 23 -23 176 29
256 88 45 33 65 37 91 20 39 -26 27 -89 -26 -133 -33 -28 -122 -63 -236 -93
-152 -39 -168 -53 -225 -198 -52 -134 -98 -209 -156 -260 -84 -74 -203 -83
-203 -15 0 18 20 44 76 97 100 94 124 132 163 252 18 55 49 142 68 193 19 52
32 100 29 108 -8 20 -31 8 -44 -24 -11 -26 -11 -25 -7 12 2 21 12 48 22 59 29
32 94 57 151 57 44 0 56 -4 75 -25z m217 0 c0 -6 -73 -55 -83 -55 -16 0 5 21
41 40 42 22 42 22 42 15z m1395 -378 c435 -84 791 -151 792 -147 2 3 -10 46
-26 95 -27 82 -28 91 -14 108 20 21 33 22 33 1 0 -9 40 -137 89 -283 124 -367
143 -466 96 -497 -35 -23 -139 -29 -234 -14 l-81 12 0 37 c-1 20 -8 54 -17 76
-9 22 -15 63 -14 92 3 84 -12 93 -208 131 -91 18 -181 42 -204 54 -32 17 -63
23 -131 25 -68 2 -96 7 -121 23 -25 16 -48 20 -101 19 -40 -1 -125 10 -199 25
-156 31 -165 31 -197 6 -21 -16 -29 -39 -48 -135 l-23 -116 20 -27 c19 -26 52
-39 145 -56 35 -6 37 -5 43 26 14 67 71 173 113 211 54 48 74 48 31 0 -84 -96
-156 -355 -195 -703 -30 -268 -13 -451 53 -572 97 -178 301 -286 598 -317 69
-7 73 -9 28 -10 -28 0 -86 4 -128 10 -206 28 -359 93 -459 193 -119 119 -163
264 -153 496 8 179 45 449 77 560 6 22 5 32 -3 35 -7 3 -126 27 -265 53 -139
27 -258 54 -265 61 -8 8 5 94 52 338 34 180 65 331 67 335 3 4 17 8 32 8 15 0
383 -69 817 -153z m1309 -167 c37 -151 122 -510 189 -796 l123 -521 -43 -28
c-24 -15 -64 -47 -88 -72 -53 -52 -53 -68 2 -181 l35 -73 -17 -47 c-9 -26 -19
-92 -22 -147 -6 -93 -8 -102 -36 -129 -26 -26 -29 -35 -24 -74 6 -54 49 -102
122 -136 68 -31 129 -46 265 -62 l115 -13 -109 6 c-210 10 -353 55 -414 128
l-29 36 -104 -12 c-153 -17 -516 -14 -684 6 -894 106 -1676 537 -2227 1229
-94 117 -236 329 -297 444 -35 65 -49 82 -66 82 -40 0 -70 36 -66 78 2 20 41
14 41 -6 0 -27 40 -59 83 -67 31 -6 42 -15 64 -54 382 -676 949 -1174 1658
-1454 249 -99 530 -169 815 -203 245 -29 767 -17 779 19 2 6 17 25 33 41 28
27 30 35 33 120 2 54 10 113 21 146 l19 55 -33 65 c-18 36 -36 85 -39 108 -7
51 7 69 105 139 46 33 61 50 57 62 -3 10 -50 206 -104 437 -164 698 -240 1016
-256 1074 -8 30 -15 63 -15 72 0 19 32 29 41 13 4 -5 37 -134 73 -285z m-205
274 c2 -2 -23 -4 -57 -4 -34 0 -62 4 -62 9 0 9 109 3 119 -5z m3592 -113 c55
-56 26 -159 -50 -176 -45 -10 -99 18 -116 59 -45 106 85 197 166 117z m-6331
-168 c4 -54 0 -73 -20 -93 -28 -28 -58 -26 -70 5 -10 25 7 150 32 240 l11 40
23 -82 c12 -46 23 -95 24 -110z m6698 52 c145 -35 152 -38 147 -58 -27 -92
-50 -157 -56 -157 -8 0 -312 111 -318 116 -4 4 14 80 29 119 7 18 15 25 28 21
9 -3 86 -21 170 -41z m-6843 -126 c-28 -135 -43 -175 -76 -203 -44 -37 -129
-33 -129 5 0 5 33 41 73 81 52 51 84 94 108 143 19 39 35 67 37 63 2 -4 -4
-44 -13 -89z m55 -80 c0 -5 -7 -9 -15 -9 -15 0 -20 12 -9 23 8 8 24 -1 24 -14z
m1667 -10 c11 -9 7 -19 -22 -50 -95 -105 -146 -297 -195 -733 -16 -141 -18
-191 -10 -235 41 -224 276 -372 595 -375 99 -1 116 2 167 26 31 14 59 24 62
20 17 -17 4 -74 -25 -106 -58 -67 -188 -95 -344 -76 -260 31 -435 129 -518
288 -51 99 -62 156 -61 317 3 227 43 498 105 700 46 149 83 207 149 234 28 12
76 7 97 -10z m243 -46 c19 -7 54 -33 77 -55 l42 -41 -34 -38 c-48 -53 -59 -77
-44 -95 18 -21 26 -17 55 26 30 45 93 80 145 80 19 0 55 -10 79 -22 48 -25 83
-80 96 -150 l6 -37 -84 24 c-97 26 -126 24 -161 -13 -32 -35 -39 -68 -22 -108
17 -42 43 -57 135 -80 41 -10 79 -21 83 -24 4 -4 -12 -27 -36 -52 -33 -35 -56
-48 -91 -56 -124 -26 -214 45 -219 173 -3 63 -17 85 -43 64 -24 -20 -14 -120
20 -186 30 -61 33 -114 8 -161 -14 -29 -29 -38 -99 -61 -97 -33 -147 -61 -151
-84 -6 -30 25 -29 91 2 165 79 325 81 424 6 146 -112 128 -342 -33 -395 -48
-16 -237 -8 -319 15 -204 54 -329 173 -342 325 -10 106 49 547 94 700 27 94
73 187 108 220 52 49 132 58 215 23z m-1274 -173 c37 -173 106 -232 312 -264
l77 -12 -95 -17 c-208 -38 -266 -98 -303 -312 -15 -85 -16 -85 -38 30 -36 187
-96 244 -299 281 l-95 18 80 13 c169 28 229 62 274 155 16 35 35 92 41 128 6
36 14 76 18 90 6 24 6 24 9 -5 2 -16 11 -64 19 -105z m1824 -390 c51 -7 52 -7
14 -9 -59 -2 -134 10 -134 21 0 6 14 7 33 2 17 -4 57 -10 87 -14z m-382 -146
c-9 -8 -88 10 -88 21 0 9 11 9 45 -3 25 -8 44 -16 43 -18z m2018 -247 c-50
-32 -114 -89 -141 -125 -29 -39 -135 -111 -135 -91 0 5 5 9 11 9 5 0 47 38 92
84 45 46 104 95 132 109 52 27 73 34 41 14z m386 -7 c75 -23 148 -81 179 -141
19 -38 43 -138 35 -146 -2 -2 -26 5 -53 16 -76 30 -196 43 -280 31 -172 -24
-293 -90 -530 -287 -157 -130 -212 -167 -285 -192 -70 -24 -264 -58 -274 -48
-13 13 -6 146 11 204 11 38 30 70 62 104 28 30 43 54 39 64 -9 24 -37 18 -72
-16 l-31 -30 -21 48 c-39 92 -39 95 16 144 105 95 255 140 401 121 46 -6 86
-14 89 -17 3 -3 1 -26 -4 -52 -9 -49 -13 -53 -89 -85 -33 -15 -39 -35 -14 -51
12 -7 40 2 114 37 54 25 99 46 102 46 2 0 -1 -9 -7 -20 -15 -28 -9 -75 10 -75
15 0 19 8 65 107 91 199 326 303 537 238z m-4483 -315 l282 -269 -55 -55 -54
-54 -184 177 c-101 98 -193 185 -206 194 -22 15 -25 13 -83 -44 -32 -32 -59
-66 -59 -75 0 -9 66 -80 146 -158 l146 -142 -43 -48 c-24 -27 -47 -49 -50 -50
-4 -1 -72 62 -152 139 -81 77 -153 140 -161 140 -21 0 -126 -112 -126 -135 0
-14 66 -84 199 -210 110 -105 199 -192 200 -195 0 -3 -22 -30 -49 -59 l-48
-55 -134 126 c-73 70 -204 196 -291 280 l-159 153 294 307 c161 168 296 305
300 305 3 -1 133 -123 287 -272z m5472 -130 c18 -99 36 -186 42 -192 5 -7 17
-13 27 -13 22 0 160 139 160 162 0 9 -20 36 -45 60 l-46 43 70 69 70 69 45
-41 c25 -23 50 -42 56 -42 6 0 30 18 53 39 l42 39 48 -44 c26 -25 47 -48 47
-52 0 -3 -16 -23 -36 -43 -43 -44 -41 -62 15 -112 l38 -35 -66 -71 -66 -72
-45 40 c-25 22 -52 40 -61 41 -9 0 -49 -35 -89 -77 -41 -43 -119 -124 -174
-181 l-100 -103 -50 51 -51 50 -46 233 -45 232 80 89 c94 104 81 119 127 -139z
m-866 130 c28 -10 63 -27 79 -38 36 -25 65 -90 66 -144 l0 -42 -27 26 c-56 52
-182 93 -287 93 -103 0 -222 -50 -386 -164 -394 -271 -479 -319 -617 -350 -74
-16 -159 -21 -188 -10 -26 10 -47 61 -35 83 12 24 17 25 155 46 218 33 294 71
505 250 175 148 310 230 435 262 68 17 236 11 300 -12z m-15 -187 c40 -13 77
-34 98 -54 36 -36 43 -74 13 -74 -15 0 -441 63 -491 73 -21 4 78 54 143 72 65
18 149 12 237 -17z m-190 -139 c151 -23 277 -44 280 -46 7 -7 -78 -81 -136
-119 l-52 -33 -287 45 c-159 24 -290 45 -291 47 -3 3 198 146 206 147 3 0 129
-18 280 -41z m637 -96 c19 -9 48 -34 64 -56 62 -85 32 -188 -100 -346 -80 -97
-98 -133 -75 -156 9 -8 19 -15 24 -15 5 0 87 52 182 115 94 63 172 114 173
112 46 -68 63 -94 69 -104 4 -8 -88 -75 -278 -202 l-285 -190 -36 57 c-86 138
-71 254 52 399 69 82 93 122 93 157 0 42 -26 66 -71 66 -68 0 -184 -108 -233
-217 l-18 -42 -64 32 c-35 17 -64 34 -64 37 0 19 82 137 125 181 146 149 335
223 442 172z m-4473 -39 c73 -19 192 -76 290 -141 71 -47 246 -210 246 -228 0
-6 -27 -29 -60 -52 l-60 -43 -38 43 c-138 156 -317 277 -412 277 -41 0 -52 -4
-69 -26 -47 -60 -18 -101 174 -245 252 -188 313 -289 254 -419 -40 -88 -104
-130 -209 -138 -150 -10 -334 73 -532 242 -69 59 -197 202 -187 210 2 1 30 21
63 44 l58 41 39 -49 c144 -182 400 -359 483 -334 38 11 66 46 66 80 0 46 -39
88 -185 197 -199 151 -275 244 -275 343 0 81 67 175 145 202 45 16 139 14 209
-4z m3832 -107 c5 -4 -187 -70 -254 -87 -37 -9 -77 -6 -250 20 -114 17 -213
33 -221 36 -8 3 25 29 79 62 l94 58 274 -43 c151 -23 276 -44 278 -46z m-656
-97 c80 -12 154 -25 165 -29 57 -23 -426 -26 -500 -3 -30 9 -30 9 20 20 28 6
68 18 90 26 22 8 49 12 60 10 11 -2 85 -13 165 -24z m-2106 -254 c241 -62 440
-116 443 -119 7 -8 -29 -157 -38 -157 -5 0 -76 18 -159 39 -142 37 -152 39
-168 23 -10 -10 -48 -138 -96 -322 -43 -168 -82 -308 -85 -312 -6 -7 -189 37
-199 47 -3 3 32 148 78 324 65 251 81 323 72 334 -7 8 -79 31 -162 52 -82 21
-153 41 -159 44 -7 5 26 161 34 161 2 0 199 -51 439 -114z m2690 44 c68 -33
122 -90 159 -168 28 -59 32 -77 32 -152 0 -73 -4 -93 -28 -141 -71 -146 -263
-249 -438 -237 -140 10 -249 93 -299 225 -32 85 -25 207 15 281 51 94 140 162
265 204 81 27 227 21 294 -12z m-858 -240 c122 -61 136 -204 28 -299 -24 -21
-95 -63 -157 -94 -63 -31 -122 -65 -131 -76 -26 -28 -13 -61 24 -61 26 0 302
41 371 56 25 5 26 3 37 -63 6 -37 10 -69 7 -71 -6 -6 -669 -111 -673 -107 -3
2 -7 44 -10 93 -4 80 -2 95 20 144 32 68 82 110 213 176 107 53 130 72 140
114 5 21 1 33 -20 54 -24 24 -32 26 -88 22 -70 -4 -167 -45 -231 -97 -22 -17
-43 -30 -47 -29 -4 2 -25 27 -48 56 l-42 52 77 50 c116 76 245 111 395 106 67
-1 96 -7 135 -26z m-950 -304 c29 -29 34 -41 34 -81 0 -40 -5 -52 -34 -81 -29
-29 -41 -34 -81 -34 -40 0 -52 5 -81 34 -29 29 -34 41 -34 81 0 40 5 52 34 81
29 29 41 34 81 34 40 0 52 -5 81 -34z"/>
<path d="M9865 8755 c-25 -24 -32 -65 -19 -100 8 -19 55 -45 83 -45 30 0 70
41 77 77 5 27 1 37 -24 63 -39 38 -83 40 -117 5z"/>
<path d="M5390 8369 c-63 -11 -148 -49 -175 -79 -17 -19 -17 -22 -3 -37 15
-14 19 -13 52 12 19 15 56 33 82 41 63 19 187 18 253 -2 36 -10 57 -12 64 -5
44 44 -143 92 -273 70z"/>
<path d="M6385 8282 c-125 -61 -183 -213 -172 -461 6 -154 30 -252 92 -377 78
-159 186 -245 318 -252 97 -6 152 12 208 68 67 67 91 136 97 281 9 238 -73
475 -221 635 -99 107 -230 150 -322 106z m40 -59 c-23 -60 -33 -237 -19 -325
l7 -37 113 -38 c63 -21 114 -40 114 -43 0 -3 -42 -32 -94 -65 l-95 -60 33
-100 c40 -122 76 -202 116 -261 16 -25 30 -47 30 -50 0 -11 -50 -1 -95 20
-104 49 -199 188 -247 362 -17 64 -21 108 -22 229 -1 189 19 269 88 340 43 46
85 62 71 28z"/>
<path d="M5365 8202 c-152 -71 -215 -364 -141 -654 69 -270 207 -424 391 -436
213 -14 331 173 298 471 -29 260 -167 516 -323 601 -70 38 -166 46 -225 18z
m38 -84 c-15 -55 -22 -275 -9 -314 4 -14 24 -26 62 -38 31 -10 83 -28 116 -40
l60 -23 -96 -61 c-110 -71 -105 -53 -53 -202 30 -86 78 -187 119 -249 l22 -34
-39 7 c-173 33 -305 245 -336 538 -11 113 1 241 31 320 30 80 69 122 136 148
1 0 -5 -24 -13 -52z"/>
<path d="M6159 7387 c-20 -8 -52 -24 -72 -36 -36 -22 -137 -126 -137 -141 0
-4 7 -13 15 -20 13 -11 23 -5 66 44 68 75 128 110 192 110 43 0 53 -4 78 -32
79 -88 -14 -216 -172 -237 -80 -11 -89 -15 -89 -35 0 -29 12 -31 95 -15 147
28 234 102 243 207 3 44 0 59 -20 87 -12 19 -34 42 -48 53 -34 24 -106 31
-151 15z"/>
<path d="M6723 6904 c-32 -8 -48 -31 -34 -48 9 -11 20 -12 44 -5 82 23 169 -1
224 -64 42 -48 57 -97 49 -166 -12 -101 -12 -106 4 -106 25 0 50 65 50 130 -1
101 -56 191 -145 237 -39 21 -144 32 -192 22z"/>
<path d="M5410 6855 c-98 -31 -165 -122 -158 -216 2 -36 6 -44 23 -44 17 0 21
9 26 58 12 108 76 156 218 166 77 5 86 8 86 26 0 18 -7 20 -75 22 -43 1 -95
-4 -120 -12z"/>
<path d="M6650 6793 c-8 -3 -83 -32 -166 -64 -285 -109 -416 -115 -669 -29
-225 76 -332 71 -408 -20 -121 -143 7 -408 250 -522 127 -59 238 -81 423 -81
237 -1 390 31 555 116 201 104 334 324 285 471 -14 45 -62 101 -101 122 -27
14 -137 18 -169 7z m180 -81 c25 -25 41 -51 46 -77 9 -52 -9 -136 -42 -192
l-26 -45 -89 164 c-48 89 -89 166 -89 170 0 9 35 15 104 17 55 1 60 -1 96 -37z
m-151 -182 l95 -173 -49 -43 c-64 -56 -163 -110 -170 -92 -3 7 -36 106 -74
219 l-69 206 77 31 c42 17 81 29 86 28 6 -1 53 -80 104 -176z m-968 151 l36
-11 -80 -203 c-44 -111 -82 -204 -84 -206 -2 -3 -26 17 -54 45 -69 67 -110
153 -111 231 -1 72 15 109 62 141 32 22 43 23 115 19 44 -3 96 -10 116 -16z
m158 -51 l67 -21 -23 -202 c-33 -287 -29 -268 -61 -261 -65 15 -185 59 -204
73 -19 16 -18 20 62 224 45 114 84 207 87 207 3 0 35 -9 72 -20z m565 -207
c38 -115 71 -213 73 -219 5 -15 -65 -38 -169 -57 l-78 -15 -5 32 c-9 52 -55
407 -55 422 0 9 12 14 33 15 17 0 50 6 72 14 22 7 45 13 50 14 6 1 41 -92 79
-206z m-288 163 c4 -3 61 -452 58 -455 -4 -5 -264 -4 -268 1 -2 1 9 107 23
235 l25 232 81 -6 c44 -3 81 -6 81 -7z"/>
<path d="M9406 8484 c-88 -14 -116 -25 -116 -48 0 -6 29 -55 65 -109 89 -133
90 -133 190 36 46 78 56 103 48 115 -13 22 -74 24 -187 6z"/>
<path d="M7720 5519 c-32 -13 -78 -56 -96 -91 -18 -35 -18 -119 0 -163 23 -54
59 -96 154 -180 48 -42 102 -95 121 -118 l34 -42 144 143 c143 143 175 185
187 254 31 173 -184 278 -303 148 l-28 -31 -17 26 c-34 51 -134 79 -196 54z"/>
<path d="M4367 5085 c-18 -39 -17 -38 -69 -26 -46 11 -47 4 -8 -34 l30 -29
-20 -34 c-12 -19 -19 -36 -16 -39 2 -2 20 3 41 11 36 16 37 15 62 -14 13 -17
28 -30 32 -30 4 0 5 20 1 45 -7 44 -7 44 32 60 43 17 42 35 -1 35 -36 0 -51
17 -51 57 0 43 -12 42 -33 -2z"/>
<path d="M7404 2381 c-90 -41 -127 -147 -90 -259 19 -56 74 -125 119 -148 39
-21 115 -21 154 -1 69 36 111 123 98 201 -15 95 -68 174 -140 207 -51 24 -89
23 -141 0z"/>
</g>
</svg>
